<svg width="63" height="53" viewBox="0 0 63 53" fill="none" xmlns="http://www.w3.org/2000/svg">
<path d="M51.9351 5.05566L29.0293 26.6149H43.2585L57.842 11.1207L51.9351 5.05566Z" fill="#F0AEB0" stroke="black" stroke-width="1.5625"/>
<path d="M57.1106 25.0801L35.0557 51.0269C49.3858 51.0269 61.0025 39.4101 61.0025 25.0801H57.1106Z" fill="#F0AEB0" stroke="black" stroke-width="1.5625"/>
<path d="M1.97363 25.0801C1.97363 30.6067 6.08755 35.1724 11.42 35.882V35.7988C15.4998 44.7808 24.5481 51.027 35.056 51.027C47.2365 51.027 57.1108 39.4102 57.1108 25.0802L1.97363 25.0801Z" fill="#F7CAC9" stroke="black" stroke-width="1.5625"/>
<path d="M60.3107 9.42924L53.5443 2.66279C52.6223 1.74066 51.1272 1.74066 50.2052 2.66279C49.2832 3.5848 49.2832 5.07988 50.2052 6.00201L56.9716 12.7685C57.8936 13.6906 59.3887 13.6906 60.3107 12.7685C61.233 11.8462 61.233 10.3514 60.3107 9.42924Z" fill="#F7CAC9" stroke="black" stroke-width="1.5625"/>
<path d="M61.0036 24.1072L46.9732 24.0872L56.6675 13.7868C57.9712 14.7453 59.8202 14.6352 60.9985 13.4568C61.6282 12.827 61.9752 11.9898 61.9752 11.0991C61.9752 10.2086 61.6284 9.37122 60.9986 8.74146L54.2321 1.97501C52.9319 0.674998 50.8171 0.674998 49.5168 1.97501C48.3383 3.15354 48.2281 5.00221 49.1868 6.30603L30.4296 23.9595C30.3949 23.992 30.3643 24.0272 30.3356 24.0633L1.97441 24.0228C1.97394 24.0228 1.97346 24.0228 1.97298 24.0228C1.71515 24.0228 1.46779 24.1251 1.28534 24.3073C1.10278 24.4897 1 24.7374 1 24.9957C1 30.7421 5.15882 35.672 10.7585 36.6789C12.3409 39.9878 14.5985 42.9701 17.4155 45.4158C19.6875 47.3882 22.256 48.9481 25.0052 50.054H23.3792C22.8417 50.054 22.4062 50.4897 22.4062 51.027C22.4062 51.5644 22.8417 52 23.3792 52H46.7314C47.2688 52 47.7043 51.5644 47.7043 51.027C47.7043 50.4897 47.2688 50.054 46.7314 50.054H45.1013C54.9833 46.0646 61.9752 36.3742 61.9752 25.0802C61.9752 24.5433 61.5402 24.1079 61.0036 24.1072ZM50.5355 7.70905L53.1798 10.3533C53.3699 10.5432 53.6191 10.6382 53.868 10.6382C54.1169 10.6382 54.366 10.5433 54.5561 10.3533C54.9361 9.97323 54.9361 9.35717 54.5561 8.97726L51.246 5.66722C51.2454 5.66662 51.2448 5.66591 51.2442 5.66531L50.893 5.31423C50.3518 4.77296 50.3518 3.89239 50.893 3.35112C51.4343 2.80984 52.3148 2.80984 52.856 3.35112L59.6226 10.1177C59.8847 10.3799 60.0292 10.7285 60.0292 11.0992C60.0292 11.47 59.8848 11.8187 59.6225 12.0808C59.0813 12.622 58.2009 12.6221 57.6595 12.0808L57.3083 11.7296C57.1221 11.5435 56.8722 11.4433 56.6055 11.4447C56.3425 11.4487 56.092 11.5591 55.9116 11.7508L44.3816 24.0016C44.3568 24.0279 44.334 24.0554 44.3128 24.0837L33.1546 24.0678L50.5355 7.70905ZM35.0552 50.054C22.7973 50.054 12.1808 40.9286 10.3605 28.8275C10.2879 28.3452 9.87284 27.9991 9.39957 27.9991C9.35145 27.9991 9.30262 28.0026 9.25356 28.0102C8.72205 28.0901 8.35608 28.5857 8.43599 29.117C8.71074 30.9433 9.17329 32.7259 9.80936 34.4392C6.09845 33.235 3.38244 29.9041 2.99384 25.9703L60.0103 26.0517C59.4984 39.3741 48.5007 50.054 35.0552 50.054Z" fill="black" stroke="black" stroke-width="1.5625"/>
</svg>
